<?xml version="1.0" encoding="UTF-8"?>
<svg xmlns="http://www.w3.org/2000/svg" xmlns:xlink="http://www.w3.org/1999/xlink" viewBox="0 0 50 50" width="50px" height="50px">
<g id="surface91809919">
<path style="fill-rule:nonzero;fill:rgb(100%,100%,100%);fill-opacity:1;stroke-width:3;stroke-linecap:butt;stroke-linejoin:round;stroke:rgb(100%,100%,100%);stroke-opacity:1;stroke-miterlimit:10;" d="M 115.239893 0.00273397 C 115.349252 0.00273397 171.88791 0.00273397 171.997269 0.00273397 L 171.997269 56.432033 C 172.010939 57.675993 171.368455 58.824264 170.288533 59.466748 C 169.222282 60.081893 167.896303 60.081893 166.830052 59.466748 C 165.75013 58.824264 165.107646 57.675993 165.121316 56.432033 L 165.121316 11.827187 L 93.204033 83.635111 C 92.37017 84.660353 91.044191 85.125129 89.745551 84.824391 C 88.474251 84.537324 87.46268 83.525752 87.175612 82.254452 C 86.874875 80.955813 87.339651 79.629834 88.364892 78.795971 L 160.172816 6.878688 L 115.56797 6.878688 C 113.667856 7.056396 111.97279 5.662068 111.795081 3.761953 C 111.631042 1.861839 113.025371 0.180443 114.911816 0.00273397 C 115.021175 0.00273397 115.130534 0.00273397 115.239893 0.00273397 Z M 110.086345 34.396173 C 111.316635 34.382503 112.478575 35.024988 113.10739 36.104909 C 113.722535 37.18483 113.722535 38.49714 113.10739 39.577061 C 112.478575 40.643312 111.316635 41.299467 110.086345 41.285797 L 6.878688 41.285797 L 6.878688 165.121316 L 130.714207 165.121316 L 130.714207 61.913658 C 130.700537 60.683368 131.356691 59.521428 132.422943 58.892613 C 133.502864 58.277468 134.815173 58.277468 135.895094 58.892613 C 136.975015 59.521428 137.6175 60.683368 137.60383 61.913658 L 137.60383 165.121316 C 137.60383 166.925741 136.975015 168.757506 135.662706 170.069815 C 134.364067 171.368455 132.518632 171.997269 130.714207 171.997269 L 6.878688 171.997269 C 5.074263 171.997269 3.242498 171.368455 1.930188 170.069815 C 0.631549 168.757506 0.00273397 166.925741 0.00273397 165.121316 L 0.00273397 41.285797 C 0.00273397 39.481372 0.631549 37.635937 1.930188 36.337297 C 3.242498 35.024988 5.074263 34.396173 6.878688 34.396173 Z M 110.086345 34.396173 " transform="matrix(0.285756,0,0,0.285756,0.425,0.425)"/>
<path style=" stroke:none;fill-rule:nonzero;fill:rgb(100%,100%,100%);fill-opacity:1;" d="M 33.261719 0.425781 C 32.722656 0.476562 32.324219 0.957031 32.371094 1.5 C 32.421875 2.042969 32.90625 2.441406 33.449219 2.390625 L 46.195312 2.390625 L 25.675781 22.941406 C 25.382812 23.179688 25.25 23.558594 25.335938 23.929688 C 25.417969 24.292969 25.707031 24.582031 26.070312 24.664062 C 26.441406 24.75 26.820312 24.617188 27.058594 24.324219 L 47.609375 3.804688 L 47.609375 16.550781 C 47.605469 16.90625 47.789062 17.234375 48.097656 17.417969 C 48.402344 17.59375 48.78125 17.59375 49.085938 17.417969 C 49.394531 17.234375 49.578125 16.90625 49.574219 16.550781 L 49.574219 0.425781 L 33.449219 0.425781 C 33.417969 0.425781 33.386719 0.425781 33.355469 0.425781 C 33.324219 0.425781 33.292969 0.425781 33.261719 0.425781 Z M 2.390625 10.253906 C 1.875 10.253906 1.351562 10.433594 0.976562 10.808594 C 0.605469 11.179688 0.425781 11.707031 0.425781 12.222656 L 0.425781 47.609375 C 0.425781 48.125 0.605469 48.648438 0.976562 49.023438 C 1.351562 49.394531 1.875 49.574219 2.390625 49.574219 L 37.777344 49.574219 C 38.292969 49.574219 38.820312 49.394531 39.191406 49.023438 C 39.566406 48.648438 39.746094 48.125 39.746094 47.609375 L 39.746094 18.117188 C 39.75 17.765625 39.566406 17.433594 39.257812 17.253906 C 38.949219 17.078125 38.574219 17.078125 38.265625 17.253906 C 37.960938 17.433594 37.773438 17.765625 37.777344 18.117188 L 37.777344 47.609375 L 2.390625 47.609375 L 2.390625 12.222656 L 31.882812 12.222656 C 32.234375 12.226562 32.566406 12.039062 32.746094 11.734375 C 32.921875 11.425781 32.921875 11.050781 32.746094 10.742188 C 32.566406 10.433594 32.234375 10.25 31.882812 10.253906 Z M 2.390625 10.253906 "/>
</g>
</svg>
