<svg xmlns="http://www.w3.org/2000/svg" width="50" height="50"><path d="M33.355.426h16.22V16.55a.993.993 0 01-.489.867.992.992 0 01-.988 0 .993.993 0 01-.489-.867V3.805l-20.55 20.52a.982.982 0 01-1.723-.395.982.982 0 01.34-.989l20.52-20.55H33.448a.99.99 0 01-1.078-.891.992.992 0 01.89-1.074h.094zm-1.472 9.828a.986.986 0 01.863.488 1 1 0 010 .992.995.995 0 01-.863.489H2.39v35.386h35.386V18.117a.995.995 0 01.489-.863 1 1 0 01.992 0c.308.18.492.512.488.863V47.61c0 .516-.18 1.04-.555 1.414-.37.372-.898.551-1.414.551H2.391c-.516 0-1.04-.18-1.414-.55-.372-.376-.551-.899-.551-1.415V12.223c0-.516.18-1.043.55-1.414.376-.375.899-.555 1.415-.555zm0 0" stroke-width=".85728" stroke-linejoin="round" stroke="#000" stroke-miterlimit="10"/><path d="M33.262.426a.992.992 0 00-.89 1.074.99.99 0 001.077.89h12.746l-20.52 20.551a.982.982 0 00.395 1.723.982.982 0 00.989-.34l20.55-20.52v12.747a.993.993 0 00.489.867.992.992 0 00.988 0 .993.993 0 00.488-.867V.426H33.262zM2.39 10.254c-.516 0-1.04.18-1.414.555-.372.37-.551.898-.551 1.414v35.386c0 .516.18 1.04.55 1.414.376.372.899.551 1.415.551h35.386c.516 0 1.043-.18 1.414-.55.375-.376.555-.899.555-1.415V18.117a.986.986 0 00-.488-.863 1 1 0 00-.992 0 .995.995 0 00-.489.863V47.61H2.391V12.223h29.492a.995.995 0 00.863-.489 1 1 0 000-.992.986.986 0 00-.863-.488zm0 0"/></svg>