<?xml version="1.0" encoding="UTF-8"?>
<svg xmlns="http://www.w3.org/2000/svg" xmlns:xlink="http://www.w3.org/1999/xlink" viewBox="0 0 50 50" width="50px" height="50px">
<g id="surface86023674">
<path style="fill-rule:nonzero;fill:rgb(0%,0%,0%);fill-opacity:1;stroke-width:3;stroke-linecap:butt;stroke-linejoin:round;stroke:rgb(100%,100%,100%);stroke-opacity:1;stroke-miterlimit:10;" d="M 165.121316 86.000002 C 165.121316 129.647955 129.647955 165.121316 86.000002 165.121316 C 42.352048 165.121316 6.878688 129.647955 6.878688 86.000002 C 6.878688 42.352048 42.352048 6.878688 86.000002 6.878688 C 129.647955 6.878688 165.121316 42.352048 165.121316 86.000002 Z M 13.754642 86.000002 C 13.754642 86.21872 13.781981 86.451108 13.781981 86.669826 C 15.982833 86.464778 18.525433 86.273399 21.751526 86.16404 C 26.15323 86.000002 31.689535 86.054681 37.895665 86.355419 C 37.663276 84.660353 37.499238 82.937947 37.499238 81.188201 C 37.499238 75.064091 39.64541 68.885301 43.226921 63.458356 C 42.393058 60.382631 41.449836 56.527722 41.244787 52.290057 C 40.998729 47.478256 41.354146 42.270029 45.127035 38.756867 L 46.124937 37.840985 L 47.478256 37.840985 C 56.719101 37.840985 63.034589 41.709563 66.903168 44.785288 C 72.71287 42.625446 79.042029 41.285797 86.000002 41.285797 C 92.916965 41.285797 99.191444 42.611776 104.768758 44.771618 C 108.637337 41.709563 114.952825 37.840985 124.18 37.840985 L 125.533319 37.840985 L 126.531221 38.770537 C 130.413469 42.393058 130.823566 47.737984 130.550168 52.577125 C 130.29044 56.81479 129.292538 60.54667 128.445005 63.485696 C 131.971836 68.803282 134.131679 74.831703 133.803601 81.27022 C 133.789931 83.033636 133.625893 84.742372 133.379835 86.423768 C 139.914041 86.109361 145.669064 86.054681 150.248477 86.21872 C 153.474571 86.341749 156.01717 86.533127 158.218022 86.738176 C 158.218022 86.492118 158.245362 86.24606 158.245362 86.000002 C 158.245362 46.070258 125.929746 13.754642 86.000002 13.754642 C 46.070258 13.754642 13.754642 46.070258 13.754642 86.000002 Z M 48.107071 51.94831 C 48.312119 55.912577 49.282682 60.300612 50.075535 63.020919 L 50.567651 64.647636 L 49.556079 66.014625 C 46.193287 70.607707 44.375192 76.144012 44.375192 81.188201 C 44.375192 89.772891 47.464586 96.635175 54.039803 101.734043 C 60.628689 106.819242 71.031474 110.086345 85.658254 110.086345 C 100.285035 110.086345 110.67415 106.819242 117.263036 101.734043 C 123.851923 96.635175 126.941317 89.772891 126.941317 81.188201 L 126.941317 80.996823 C 127.242055 75.679236 125.505979 70.662387 122.102177 66.014625 L 121.076935 64.620296 L 121.582721 62.95257 C 122.389245 60.409971 123.441826 56.117626 123.674214 52.167028 C 123.865592 48.872585 123.059069 46.699073 122.143187 45.168045 C 115.198883 45.8242 109.963316 48.927264 107.543746 51.073437 L 105.903359 52.536115 L 103.880216 51.647572 C 98.863367 49.46039 92.793936 48.161751 86.000002 48.161751 C 79.206067 48.161751 73.150307 49.44672 67.709691 51.688582 L 65.713887 52.495105 L 64.100841 51.073437 C 61.68127 48.927264 56.459373 45.8242 49.52874 45.168045 C 48.735886 46.562374 47.956702 48.653867 48.107071 51.94831 Z M 13.877671 90.128308 C 13.97336 91.878054 14.151068 93.61413 14.383457 95.336535 C 19.619024 94.352303 28.135364 93.217703 39.508711 92.971645 C 39.139624 91.946403 38.838887 90.893822 38.579159 89.813901 C 35.776832 89.677202 32.988175 89.540503 30.568604 89.513163 C 23.227874 89.417474 17.759919 89.759221 13.877671 90.128308 Z M 132.69634 89.89592 C 132.436612 90.948501 132.135875 91.987413 131.780458 92.998985 C 143.440873 93.176693 152.189601 94.324964 157.616547 95.322866 C 157.835265 93.627799 158.012974 91.905393 158.108663 90.182988 C 154.240084 89.813901 148.772129 89.472153 141.431399 89.567843 C 138.779441 89.595182 135.785735 89.731881 132.69634 89.89592 Z M 14.902912 98.740338 C 19.482325 124.549087 37.731626 145.587045 61.913658 154.117055 L 61.913658 137.60383 L 52.973551 137.60383 C 46.904121 137.60383 40.971389 135.006552 38.210072 129.511256 C 35.271046 124.002291 34.437183 117.796162 29.734741 114.665758 C 28.996567 114.173642 28.176374 113.380788 27.861966 112.082149 C 27.533889 110.783509 28.026005 109.238812 28.750509 108.418619 C 30.213187 106.750892 31.757885 106.641533 33.370931 106.641533 L 33.657999 106.641533 L 33.931397 106.682543 C 36.03656 107.03796 37.731626 108.022192 39.72743 109.41652 C 41.668554 110.769839 43.678027 112.574265 45.318414 114.788787 C 48.28478 118.411307 50.143885 120.393441 54.35421 120.393441 C 57.183877 120.393441 60.368961 120.47546 62.95257 120.243072 C 65.536179 120.010684 67.258585 119.135811 67.244915 119.163151 L 67.449963 119.340859 C 68.338506 118.02855 69.336408 116.79826 70.443669 115.663659 C 62.023017 114.132632 55.133394 111.261955 49.843147 107.174659 C 45.960899 104.167283 43.035543 100.503753 40.971389 96.389117 C 28.982897 96.553156 20.165819 97.742436 14.902912 98.740338 Z M 121.473362 107.174659 C 116.388164 111.111587 109.840287 113.927584 101.870742 115.499621 C 103.114702 116.78459 104.235633 118.219929 105.178855 119.750956 C 108.29559 124.754135 110.086345 130.768886 110.086345 136.223172 L 110.086345 154.117055 C 134.282047 145.587045 152.531348 124.535417 157.110761 98.712998 C 151.642806 97.715096 142.566 96.512146 130.31778 96.416457 C 128.267297 100.517423 125.34194 104.180953 121.473362 107.174659 Z M 72.958928 123.455496 C 70.402659 127.324074 68.803282 132.463952 68.803282 136.223172 L 68.803282 156.167539 C 74.312247 157.520858 80.06727 158.245362 86.000002 158.245362 C 91.932733 158.245362 97.687756 157.520858 103.196721 156.167539 L 103.196721 136.223172 C 103.196721 132.381933 101.720373 127.228385 99.328143 123.373477 C 96.935912 119.532238 93.955877 117.304046 91.15355 117.304046 L 81.529948 117.304046 C 78.727621 117.304046 75.515197 119.600587 72.958928 123.455496 Z M 44.306842 126.339842 L 44.361522 126.421862 C 45.74218 129.183179 48.735886 130.714207 52.973551 130.714207 L 62.597153 130.714207 C 62.856881 129.497586 63.171288 128.294636 63.595055 127.091686 C 63.581385 127.091686 63.567715 127.091686 63.554045 127.091686 C 60.382631 127.378754 57.033508 127.283065 54.35421 127.283065 C 48.927264 127.283065 45.318414 124.453398 42.338378 121.364003 C 43.008203 123.182098 43.746377 125.287261 44.306842 126.339842 Z M 44.306842 126.339842 " transform="matrix(0.285756,0,0,0.285756,0.425,0.425)"/>
<path style=" stroke:none;fill-rule:nonzero;fill:rgb(100%,100%,100%);fill-opacity:1;" d="M 25 2.390625 C 12.527344 2.390625 2.390625 12.527344 2.390625 25 C 2.390625 37.472656 12.527344 47.609375 25 47.609375 C 37.472656 47.609375 47.609375 37.472656 47.609375 25 C 47.609375 12.527344 37.472656 2.390625 25 2.390625 Z M 25 4.355469 C 36.410156 4.355469 45.644531 13.589844 45.644531 25 C 45.644531 25.070312 45.636719 25.140625 45.636719 25.210938 C 45.007812 25.152344 44.28125 25.097656 43.359375 25.0625 C 42.050781 25.015625 40.40625 25.03125 38.539062 25.121094 C 38.609375 24.640625 38.65625 24.152344 38.660156 23.648438 C 38.753906 21.808594 38.136719 20.085938 37.128906 18.566406 C 37.371094 17.726562 37.65625 16.660156 37.730469 15.449219 C 37.808594 14.066406 37.691406 12.539062 36.582031 11.503906 L 36.296875 11.238281 L 35.910156 11.238281 C 33.273438 11.238281 31.46875 12.34375 30.363281 13.21875 C 28.769531 12.601562 26.976562 12.222656 25 12.222656 C 23.011719 12.222656 21.203125 12.605469 19.542969 13.222656 C 18.4375 12.34375 16.632812 11.238281 13.992188 11.238281 L 13.605469 11.238281 L 13.320312 11.5 C 12.242188 12.503906 12.140625 13.992188 12.210938 15.367188 C 12.269531 16.578125 12.539062 17.679688 12.777344 18.558594 C 11.753906 20.109375 11.140625 21.875 11.140625 23.625 C 11.140625 24.125 11.1875 24.617188 11.253906 25.101562 C 9.480469 25.015625 7.898438 25 6.640625 25.046875 C 5.71875 25.078125 4.992188 25.132812 4.363281 25.191406 C 4.363281 25.128906 4.355469 25.0625 4.355469 25 C 4.355469 13.589844 13.589844 4.355469 25 4.355469 Z M 14.578125 13.332031 C 16.558594 13.519531 18.050781 14.40625 18.742188 15.019531 L 19.203125 15.425781 L 19.773438 15.195312 C 21.328125 14.554688 23.058594 14.1875 25 14.1875 C 26.941406 14.1875 28.675781 14.558594 30.109375 15.183594 L 30.6875 15.4375 L 31.15625 15.019531 C 31.847656 14.40625 33.34375 13.519531 35.328125 13.332031 C 35.589844 13.769531 35.820312 14.390625 35.765625 15.332031 C 35.699219 16.460938 35.398438 17.6875 35.167969 18.414062 L 35.023438 18.890625 L 35.316406 19.289062 C 36.289062 20.617188 36.785156 22.050781 36.699219 23.570312 L 36.699219 23.625 C 36.699219 26.078125 35.816406 28.039062 33.933594 29.496094 C 32.050781 30.949219 29.082031 31.882812 24.902344 31.882812 C 20.722656 31.882812 17.75 30.949219 15.867188 29.496094 C 13.988281 28.039062 13.105469 26.078125 13.105469 23.625 C 13.105469 22.183594 13.625 20.601562 14.585938 19.289062 L 14.875 18.898438 L 14.734375 18.433594 C 14.507812 17.65625 14.230469 16.402344 14.171875 15.269531 C 14.128906 14.328125 14.351562 13.730469 14.578125 13.332031 Z M 9.160156 26.003906 C 9.851562 26.011719 10.648438 26.050781 11.449219 26.089844 C 11.523438 26.398438 11.609375 26.699219 11.714844 26.992188 C 8.464844 27.0625 6.03125 27.386719 4.535156 27.667969 C 4.46875 27.175781 4.417969 26.679688 4.390625 26.179688 C 5.5 26.074219 7.0625 25.976562 9.160156 26.003906 Z M 40.839844 26.019531 C 42.9375 25.992188 44.5 26.089844 45.605469 26.195312 C 45.578125 26.6875 45.527344 27.179688 45.464844 27.664062 C 43.914062 27.378906 41.414062 27.050781 38.082031 27 C 38.183594 26.710938 38.269531 26.414062 38.34375 26.113281 C 39.226562 26.066406 40.082031 26.027344 40.839844 26.019531 Z M 12.132812 27.96875 C 12.722656 29.144531 13.558594 30.191406 14.667969 31.050781 C 16.179688 32.21875 18.148438 33.039062 20.554688 33.476562 C 20.238281 33.800781 19.953125 34.152344 19.699219 34.527344 L 19.640625 34.476562 C 19.644531 34.46875 19.152344 34.71875 18.414062 34.785156 C 17.675781 34.851562 16.765625 34.828125 15.957031 34.828125 C 14.753906 34.828125 14.222656 34.261719 13.375 33.226562 C 12.90625 32.59375 12.332031 32.078125 11.777344 31.691406 C 11.207031 31.292969 10.722656 31.011719 10.121094 30.910156 L 10.042969 30.898438 L 9.960938 30.898438 C 9.5 30.898438 9.058594 30.929688 8.640625 31.40625 C 8.433594 31.640625 8.292969 32.082031 8.386719 32.453125 C 8.476562 32.824219 8.710938 33.050781 8.921875 33.191406 C 10.265625 34.085938 10.503906 35.859375 11.34375 37.433594 C 12.132812 39.003906 13.828125 39.746094 15.5625 39.746094 L 18.117188 39.746094 L 18.117188 44.464844 C 11.207031 42.027344 5.992188 36.015625 4.683594 28.640625 C 6.1875 28.355469 8.707031 28.015625 12.132812 27.96875 Z M 37.664062 27.976562 C 41.164062 28.003906 43.757812 28.347656 45.320312 28.632812 C 44.011719 36.011719 38.796875 42.027344 31.882812 44.464844 L 31.882812 39.351562 C 31.882812 37.792969 31.371094 36.074219 30.480469 34.644531 C 30.210938 34.207031 29.890625 33.796875 29.535156 33.429688 C 31.8125 32.980469 33.683594 32.175781 35.136719 31.050781 C 36.242188 30.195312 37.078125 29.148438 37.664062 27.976562 Z M 23.722656 33.945312 L 26.472656 33.945312 C 27.273438 33.945312 28.125 34.582031 28.808594 35.679688 C 29.492188 36.78125 29.914062 38.253906 29.914062 39.351562 L 29.914062 45.050781 C 28.339844 45.4375 26.695312 45.644531 25 45.644531 C 23.304688 45.644531 21.660156 45.4375 20.085938 45.050781 L 20.085938 39.351562 C 20.085938 38.277344 20.542969 36.808594 21.273438 35.703125 C 22.003906 34.601562 22.921875 33.945312 23.722656 33.945312 Z M 12.523438 35.105469 C 13.375 35.988281 14.40625 36.796875 15.957031 36.796875 C 16.722656 36.796875 17.679688 36.824219 18.585938 36.742188 C 18.589844 36.742188 18.59375 36.742188 18.597656 36.742188 C 18.476562 37.085938 18.386719 37.429688 18.3125 37.777344 L 15.5625 37.777344 C 14.351562 37.777344 13.496094 37.339844 13.101562 36.550781 L 13.085938 36.527344 C 12.925781 36.226562 12.714844 35.625 12.523438 35.105469 Z M 12.523438 35.105469 "/>
</g>
</svg>
