<svg xmlns="http://www.w3.org/2000/svg" width="50" height="50"><path d="M47.61 25c0 12.473-10.137 22.61-22.61 22.61C12.527 47.61 2.39 37.472 2.39 25 2.39 12.527 12.528 2.39 25 2.39c12.473 0 22.61 10.137 22.61 22.61zM4.354 25c0 .063.008.129.008.191a37.524 37.524 0 012.278-.144c1.257-.047 2.84-.031 4.613.055a10.857 10.857 0 01-.113-1.477c0-1.75.613-3.516 1.636-5.066-.238-.88-.507-1.98-.566-3.192-.07-1.375.031-2.863 1.11-3.867l.284-.262h.387c2.64 0 4.446 1.106 5.551 1.985 1.66-.618 3.469-1 5.457-1 1.977 0 3.77.379 5.363.996 1.106-.875 2.91-1.98 5.547-1.98h.387l.285.265c1.11 1.035 1.227 2.562 1.148 3.945-.074 1.211-.359 2.278-.601 3.117 1.008 1.52 1.625 3.243 1.531 5.082-.004.504-.05.993-.12 1.473 1.866-.09 3.51-.105 4.82-.058.921.035 1.648.09 2.277.148 0-.07.008-.14.008-.211C45.645 13.59 36.41 4.355 25 4.355S4.355 13.59 4.355 25zm9.817-9.73c.058 1.132.336 2.386.562 3.164l.141.464-.29.391c-.96 1.313-1.48 2.895-1.48 4.336 0 2.453.883 4.414 2.762 5.871 1.883 1.453 4.856 2.387 9.035 2.387 4.18 0 7.149-.934 9.032-2.387 1.882-1.457 2.765-3.418 2.765-5.871v-.055c.086-1.52-.41-2.953-1.383-4.28l-.293-.4.145-.476c.23-.726.531-1.953.598-3.082.054-.941-.176-1.562-.438-2-1.984.188-3.48 1.074-4.172 1.688l-.468.418-.579-.254c-1.433-.625-3.168-.996-5.109-.996-1.941 0-3.672.367-5.227 1.007l-.57.23-.46-.405c-.692-.614-2.184-1.5-4.165-1.688-.226.398-.45.996-.406 1.938zM4.39 26.18c.027.5.078.996.144 1.488 1.496-.281 3.93-.605 7.18-.676a8.582 8.582 0 01-.266-.902c-.8-.04-1.597-.078-2.289-.086a43.86 43.86 0 00-4.77.176zm33.953-.067c-.074.301-.16.598-.262.887 3.332.05 5.832.379 7.383.664.062-.484.113-.976.14-1.469a43.733 43.733 0 00-4.765-.175c-.758.007-1.613.046-2.496.093zm-33.66 2.528c1.308 7.375 6.523 13.386 13.433 15.824v-4.719h-2.554c-1.735 0-3.43-.742-4.22-2.312-.84-1.575-1.077-3.348-2.421-4.243a1.222 1.222 0 01-.535-.738c-.094-.37.047-.812.254-1.047.418-.476.859-.508 1.32-.508h.082l.078.012c.602.102 1.086.383 1.656.781a6.94 6.94 0 011.598 1.536c.848 1.035 1.379 1.601 2.582 1.601.809 0 1.719.024 2.457-.043.738-.066 1.23-.316 1.227-.308l.058.05c.254-.375.54-.726.856-1.05-2.407-.438-4.375-1.258-5.887-2.426a8.926 8.926 0 01-2.535-3.082c-3.426.047-5.945.386-7.45.672zm30.453 2.41c-1.453 1.125-3.324 1.93-5.602 2.379.356.367.676.777.945 1.215.891 1.43 1.403 3.148 1.403 4.707v5.113c6.914-2.438 12.129-8.453 13.437-15.832-1.562-.285-4.156-.63-7.656-.656a8.877 8.877 0 01-2.527 3.074zm-13.864 4.652c-.73 1.106-1.187 2.574-1.187 3.649v5.699c1.574.387 3.219.594 4.914.594 1.695 0 3.34-.207 4.914-.594v-5.7c0-1.097-.422-2.57-1.105-3.671-.684-1.098-1.536-1.735-2.336-1.735h-2.75c-.801 0-1.72.657-2.45 1.758zm-8.187.824l.016.024c.394.789 1.25 1.226 2.46 1.226h2.75c.075-.347.165-.691.286-1.035h-.012c-.906.082-1.863.055-2.629.055-1.55 0-2.582-.809-3.434-1.692.192.52.403 1.122.563 1.422zm0 0" stroke-width=".85728" stroke-linejoin="round" stroke="#000" stroke-miterlimit="10"/><path d="M25 2.39C12.527 2.39 2.39 12.528 2.39 25c0 12.473 10.137 22.61 22.61 22.61 12.473 0 22.61-10.137 22.61-22.61C47.61 12.527 37.472 2.39 25 2.39zm0 1.965c11.41 0 20.645 9.235 20.645 20.645 0 .07-.008.14-.008.21a40.538 40.538 0 00-2.278-.148c-1.308-.046-2.953-.03-4.82.06.07-.481.117-.97.121-1.474.094-1.84-.523-3.562-1.531-5.082.242-.84.527-1.906.601-3.117.079-1.383-.039-2.91-1.148-3.945l-.285-.266h-.387c-2.637 0-4.441 1.106-5.547 1.98A14.766 14.766 0 0025 12.224c-1.988 0-3.797.382-5.457 1-1.105-.88-2.91-1.985-5.55-1.985h-.388l-.285.262c-1.078 1.004-1.18 2.492-1.11 3.867.06 1.211.33 2.313.567 3.192-1.023 1.55-1.636 3.316-1.636 5.066 0 .5.046.992.113 1.477-1.774-.086-3.356-.102-4.613-.055-.922.031-1.649.086-2.278.144 0-.062-.008-.128-.008-.191C4.355 13.59 13.59 4.355 25 4.355zm-10.422 8.977c1.98.188 3.473 1.074 4.164 1.688l.461.406.57-.23c1.555-.641 3.286-1.008 5.227-1.008 1.941 0 3.676.37 5.11.996l.578.254.468-.418c.692-.614 2.188-1.5 4.172-1.688.262.438.492 1.059.438 2-.067 1.129-.368 2.355-.598 3.082l-.145.477.293.398c.973 1.328 1.47 2.762 1.383 4.281v.055c0 2.453-.883 4.414-2.765 5.871-1.883 1.453-4.852 2.387-9.032 2.387s-7.152-.934-9.035-2.387c-1.879-1.457-2.762-3.418-2.762-5.871 0-1.441.52-3.023 1.48-4.336l.29-.39-.14-.465c-.227-.778-.505-2.032-.563-3.164-.043-.942.18-1.54.406-1.938zM9.16 26.004c.692.008 1.488.047 2.29.086.073.308.16.61.265.902-3.25.07-5.684.395-7.18.676a18.812 18.812 0 01-.144-1.488 43.86 43.86 0 014.77-.176zm31.68.016c2.097-.028 3.66.07 4.765.175a20.31 20.31 0 01-.14 1.47c-1.55-.286-4.05-.614-7.383-.665a9.65 9.65 0 00.262-.887 60.478 60.478 0 012.496-.093zm-28.707 1.949a8.926 8.926 0 002.535 3.082c1.512 1.168 3.48 1.988 5.887 2.426a7.615 7.615 0 00-.856 1.05l-.058-.05c.004-.008-.489.242-1.227.308-.738.067-1.648.043-2.457.043-1.203 0-1.734-.566-2.582-1.601a6.94 6.94 0 00-1.598-1.536c-.57-.398-1.054-.68-1.656-.78l-.078-.013h-.082c-.461 0-.902.032-1.32.508-.207.235-.348.676-.254 1.047.09.371.324.598.535.738 1.344.895 1.582 2.668 2.422 4.243.789 1.57 2.484 2.312 4.219 2.312h2.554v4.719c-6.91-2.438-12.125-8.45-13.433-15.824 1.503-.286 4.023-.625 7.449-.672zm25.531.008c3.5.027 6.094.37 7.656.656-1.308 7.379-6.523 13.394-13.437 15.832v-5.113c0-1.559-.512-3.278-1.403-4.707a7.136 7.136 0 00-.945-1.215c2.277-.45 4.149-1.254 5.602-2.38a8.877 8.877 0 002.527-3.073zm-13.941 5.968h2.75c.8 0 1.652.637 2.336 1.735.683 1.101 1.105 2.574 1.105 3.672v5.699a20.569 20.569 0 01-4.914.594c-1.695 0-3.34-.208-4.914-.594v-5.7c0-1.074.457-2.542 1.187-3.648.73-1.101 1.649-1.758 2.45-1.758zm-11.2 1.16c.852.883 1.883 1.692 3.434 1.692.766 0 1.723.027 2.629-.055h.012c-.121.344-.211.688-.285 1.035h-2.75c-1.211 0-2.067-.437-2.461-1.226l-.016-.024c-.16-.3-.371-.902-.563-1.422zm0 0"/></svg>