<?xml version="1.0" encoding="UTF-8"?>
<svg xmlns="http://www.w3.org/2000/svg" xmlns:xlink="http://www.w3.org/1999/xlink" viewBox="0 0 50 50" width="50px" height="50px">
<g id="surface55828461">
<path style="fill-rule:nonzero;fill:rgb(100%,100%,100%);fill-opacity:1;stroke-width:3;stroke-linecap:butt;stroke-linejoin:round;stroke:rgb(100%,100%,100%);stroke-opacity:1;stroke-miterlimit:10;" d="M 165.121316 86.000002 C 165.121316 129.661625 129.661625 165.121316 86.000002 165.121316 C 42.338378 165.121316 6.878688 129.661625 6.878688 86.000002 C 6.878688 42.338378 42.338378 6.878688 86.000002 6.878688 C 129.661625 6.878688 165.121316 42.338378 165.121316 86.000002 Z M 13.754642 86.000002 C 13.754642 125.943416 46.056588 158.245362 86.000002 158.245362 C 125.943416 158.245362 158.245362 125.943416 158.245362 86.000002 C 158.245362 46.056588 125.943416 13.754642 86.000002 13.754642 C 46.056588 13.754642 13.754642 46.056588 13.754642 86.000002 Z M 96.320767 48.161751 C 96.320767 53.862094 91.700345 58.482516 86.000002 58.482516 C 80.299658 58.482516 75.679236 53.862094 75.679236 48.161751 C 75.679236 42.461407 80.299658 37.840985 86.000002 37.840985 C 91.700345 37.840985 96.320767 42.461407 96.320767 48.161751 Z M 92.875956 72.234424 L 92.875956 123.838253 L 99.765579 123.838253 L 99.765579 130.714207 L 72.234424 130.714207 L 72.234424 123.838253 L 79.124048 123.838253 L 79.124048 79.124048 L 72.234424 79.124048 L 72.234424 72.234424 Z M 92.875956 72.234424 " transform="matrix(0.285756,0,0,0.285756,0.425,0.425)"/>
<path style=" stroke:none;fill-rule:nonzero;fill:rgb(100%,100%,100%);fill-opacity:1;" d="M 25 2.390625 C 12.523438 2.390625 2.390625 12.523438 2.390625 25 C 2.390625 37.476562 12.523438 47.609375 25 47.609375 C 37.476562 47.609375 47.609375 37.476562 47.609375 25 C 47.609375 12.523438 37.476562 2.390625 25 2.390625 Z M 25 4.355469 C 36.414062 4.355469 45.644531 13.585938 45.644531 25 C 45.644531 36.414062 36.414062 45.644531 25 45.644531 C 13.585938 45.644531 4.355469 36.414062 4.355469 25 C 4.355469 13.585938 13.585938 4.355469 25 4.355469 Z M 25 11.238281 C 23.371094 11.238281 22.050781 12.558594 22.050781 14.1875 C 22.050781 15.816406 23.371094 17.136719 25 17.136719 C 26.628906 17.136719 27.949219 15.816406 27.949219 14.1875 C 27.949219 12.558594 26.628906 11.238281 25 11.238281 Z M 21.066406 21.066406 L 21.066406 23.035156 L 23.035156 23.035156 L 23.035156 35.8125 L 21.066406 35.8125 L 21.066406 37.777344 L 28.933594 37.777344 L 28.933594 35.8125 L 26.964844 35.8125 L 26.964844 21.066406 Z M 21.066406 21.066406 "/>
</g>
</svg>
