<svg xmlns="http://www.w3.org/2000/svg" width="50" height="50"><path d="M47.61 25c0 12.477-10.133 22.61-22.61 22.61S2.39 37.476 2.39 25 12.524 2.39 25 2.39 47.61 12.524 47.61 25zM4.354 25c0 11.414 9.23 20.645 20.645 20.645 11.414 0 20.645-9.23 20.645-20.645 0-11.414-9.23-20.645-20.645-20.645-11.414 0-20.645 9.23-20.645 20.645zM27.95 14.188a2.95 2.95 0 11-5.898 0 2.95 2.95 0 015.898 0zm-.984 6.878v14.747h1.969v1.964h-7.868v-1.964h1.97V23.035h-1.97v-1.969zm0 0" stroke-width=".85728" stroke-linejoin="round" stroke="#000" stroke-miterlimit="10"/><path d="M25 2.39C12.523 2.39 2.39 12.524 2.39 25S12.524 47.61 25 47.61 47.61 37.476 47.61 25 37.476 2.39 25 2.39zm0 1.965c11.414 0 20.645 9.23 20.645 20.645 0 11.414-9.23 20.645-20.645 20.645-11.414 0-20.645-9.23-20.645-20.645 0-11.414 9.23-20.645 20.645-20.645zm0 6.883a2.95 2.95 0 100 5.898 2.95 2.95 0 000-5.898zm-3.934 9.828v1.97h1.97v12.776h-1.97v1.965h7.868v-1.965h-1.97V21.066zm0 0"/></svg>