<svg xmlns="http://www.w3.org/2000/svg" width="50" height="50"><path d="M33.848 3.375c7.047 0 12.777 5.73 12.777 12.777v17.696c0 7.047-5.73 12.777-12.777 12.777H16.152c-7.047 0-12.777-5.73-12.777-12.777V16.152c0-7.047 5.73-12.777 12.777-12.777zM5.34 16.152v17.696c0 5.98 4.832 10.812 10.812 10.812h17.696c5.98 0 10.812-4.832 10.812-10.812V16.152c0-5.98-4.832-10.812-10.812-10.812H16.152A10.801 10.801 0 005.34 16.152zm33.422-2.949a1.967 1.967 0 11-3.935.003 1.967 1.967 0 013.935-.003zM35.812 25c0 5.961-4.851 10.813-10.812 10.813-5.96 0-10.812-4.852-10.812-10.813 0-5.96 4.851-10.812 10.812-10.812 5.961 0 10.813 4.851 10.813 10.812zm-19.66 0A8.832 8.832 0 0025 33.848 8.832 8.832 0 0033.848 25 8.832 8.832 0 0025 16.152 8.832 8.832 0 0016.152 25zm0 0" stroke-width=".85728" stroke-linejoin="round" stroke="#000" stroke-miterlimit="10"/><path d="M16.152 3.375c-7.047 0-12.777 5.73-12.777 12.777v17.696c0 7.047 5.73 12.777 12.777 12.777h17.696c7.047 0 12.777-5.73 12.777-12.777V16.152c0-7.047-5.73-12.777-12.777-12.777zm0 1.965h17.696c5.98 0 10.812 4.832 10.812 10.812v17.696c0 5.98-4.832 10.812-10.812 10.812H16.152A10.801 10.801 0 015.34 33.848V16.152c0-5.98 4.832-10.812 10.812-10.812zm20.645 5.898a1.967 1.967 0 10-.003 3.935 1.967 1.967 0 00.003-3.935zM25 14.188c-5.96 0-10.813 4.851-10.813 10.812 0 5.96 4.852 10.813 10.813 10.813 5.96 0 10.813-4.852 10.813-10.813 0-5.96-4.852-10.813-10.813-10.813zm0 1.964A8.832 8.832 0 0133.848 25 8.832 8.832 0 0125 33.848 8.832 8.832 0 0116.152 25 8.832 8.832 0 0125 16.152zm0 0"/></svg>