<svg xmlns="http://www.w3.org/2000/svg" width="50" height="50"><path d="M40.727 4.355c2.703 0 4.918 2.215 4.918 4.918v31.454c0 2.703-2.215 4.918-4.918 4.918H9.273c-2.703 0-4.918-2.215-4.918-4.918V9.273c0-2.703 2.215-4.918 4.918-4.918zM6.324 9.273v31.454c0 1.64 1.309 2.949 2.95 2.949h31.453c1.64 0 2.949-1.309 2.949-2.95V9.274c0-1.64-1.309-2.949-2.95-2.949H9.274a2.934 2.934 0 00-2.949 2.95zm11.781 5.32c0 .016 0 .036.004.052 0 1.898-1.687 3.464-3.921 3.464a.997.997 0 01-.301-.054h-.004c-2.024-.14-3.617-1.575-3.617-3.41 0-.965.441-1.868 1.16-2.47.715-.605 1.683-.925 2.762-.925 2.152 0 3.816 1.477 3.917 3.344zm-5.43-.933c-.316.266-.464.574-.464.985 0 .824.613 1.52 1.977 1.52 1.433 0 1.957-.653 1.968-1.493-.058-.867-.601-1.48-1.968-1.48-.692 0-1.2.203-1.512.468zm4.462 5.442c.543 0 .98.441.98.984v18.676a.982.982 0 01-.98.984h-5.899a.985.985 0 01-.984-.984V20.086c0-.543.441-.984.984-.984zm8.847 0c.543 0 .98.441.98.984v.414a8.582 8.582 0 014.731-1.398c2.176 0 4.23.765 5.711 2.328 1.477 1.558 2.34 3.867 2.34 6.777v10.555a.985.985 0 01-.984.984h-5.899a.982.982 0 01-.98-.984v-9.828c0-.82-.219-1.602-.606-2.125-.39-.52-.902-.852-1.87-.868-.942-.015-1.434.301-1.825.832-.394.532-.617 1.344-.617 2.16v9.829a.982.982 0 01-.98.984h-5.899a.985.985 0 01-.984-.984V20.086c0-.543.441-.984.984-.984zM12.223 37.777h3.93v-16.71h-3.93zm8.843 0H25v-8.843c0-1.153.277-2.352 1-3.325.719-.976 1.945-1.66 3.441-1.632 1.489.023 2.696.695 3.414 1.66.715.96.993 2.148.993 3.297v8.843h3.93v-9.57c0-2.531-.72-4.285-1.801-5.426-1.079-1.14-2.555-1.715-4.282-1.715-3.382 0-4.925 2.125-4.925 2.125a.985.985 0 01-1.098.344.987.987 0 01-.672-.933v-1.536h-3.934zm0 0" stroke-width=".85728" stroke-linejoin="round" stroke="#000" stroke-miterlimit="10"/><path d="M9.273 4.355c-2.703 0-4.918 2.215-4.918 4.918v31.454c0 2.703 2.215 4.918 4.918 4.918h31.454c2.703 0 4.918-2.215 4.918-4.918V9.273c0-2.703-2.215-4.918-4.918-4.918zm0 1.97h31.454c1.64 0 2.949 1.308 2.949 2.948v31.454c0 1.64-1.309 2.949-2.95 2.949H9.274a2.934 2.934 0 01-2.949-2.95V9.274c0-1.64 1.309-2.949 2.95-2.949zm4.915 4.925c-1.079 0-2.047.32-2.762.926a3.232 3.232 0 00-1.16 2.469c0 1.835 1.593 3.27 3.617 3.41h.004c.097.035.199.05.3.054 2.235 0 3.922-1.566 3.922-3.464-.004-.016-.004-.036-.004-.051-.101-1.867-1.765-3.344-3.918-3.344zm0 1.941c1.367 0 1.91.614 1.968 1.48-.011.84-.535 1.493-1.968 1.493-1.364 0-1.977-.695-1.977-1.52 0-.41.148-.718.465-.984.312-.265.82-.469 1.511-.469zm-2.95 5.91a.985.985 0 00-.984.985v18.676c0 .543.441.984.984.984h5.899c.543 0 .98-.441.98-.984V20.086a.982.982 0 00-.98-.984zm8.848 0a.985.985 0 00-.984.985v18.676c0 .543.441.984.984.984h5.898c.543 0 .98-.441.98-.984v-9.828c0-.817.224-1.63.618-2.16.39-.532.883-.848 1.824-.833.969.016 1.48.348 1.871.868.387.523.606 1.304.606 2.125v9.828c0 .543.437.984.98.984h5.899a.985.985 0 00.984-.984V28.207c0-2.91-.863-5.219-2.34-6.777-1.48-1.563-3.535-2.328-5.71-2.328a8.582 8.582 0 00-4.731 1.398v-.414a.982.982 0 00-.98-.984zm-7.863 1.965h3.93v16.711h-3.93zm8.843 0H25v1.536c0 .421.27.796.672.933a.985.985 0 001.098-.344s1.543-2.125 4.925-2.125c1.727 0 3.203.575 4.282 1.715 1.082 1.14 1.8 2.895 1.8 5.426v9.57h-3.93v-8.843c0-1.149-.277-2.336-.992-3.297-.718-.965-1.925-1.637-3.414-1.66-1.496-.028-2.722.656-3.441 1.632-.723.973-1 2.172-1 3.325v8.843h-3.934zm0 0"/></svg>