<svg xmlns="http://www.w3.org/2000/svg" width="50" height="50"><path d="M45.492 6.66c.473.281.848.79 1 1.375.156.582.133 1.227-.031 1.977l-6.41 33.41-.031.086s-.301.8-1.067 1.426c-.765.62-2.148 1-3.676.32l-.109-.047-8.723-6.805-5.375 4.989-.035.023s-.828.652-1.832.3c-.039-.007-.058-.007-.09-.019-.015-.004-.031-.015-.047-.023l.024.008c-.008-.004-.02-.004-.027-.008h-.004a1.232 1.232 0 01-.204-.102 1.802 1.802 0 01-.464-.437c-.29-.375-.563-.922-.86-1.871-.535-1.719-2.965-9.836-3.187-10.578L5.59 27.688l-.008-.004s-1.96-.536-2.191-2.43c-.067-.54.109-1.047.351-1.406.238-.36.535-.606.809-.797.457-.32.91-.496 1.047-.547.511-.219 9.207-3.95 18.047-7.738 4.558-1.953 9.152-3.922 12.691-5.434a816.767 816.767 0 016.348-2.7c.418-.167.886-.3 1.363-.323.48-.02.973.07 1.445.351zm-2.078 1.797c-.215.086-2.77 1.172-6.305 2.684-3.535 1.511-8.132 3.48-12.687 5.433-9.117 3.903-18.07 7.746-18.07 7.746l-.036.012-.03.012s-.325.12-.61.32a1.295 1.295 0 00-.305.281c-.043.067-.035.051-.031.067.043.34.914.824.914.824l8.762 3 23.199-15.469a.985.985 0 011.297 1.457L23.477 33.688l2.855 2.14.004-.004.27.211 9.539 7.438c.914.382 1.257.187 1.566-.063.305-.25.437-.555.453-.59L44.54 9.602V9.59c.121-.543.098-.887.055-1.055-.043-.164-.067-.16-.11-.187-.046-.028-.191-.047-.386-.04-.192.008-.438.051-.684.149zm-27.117 21.89c.316 1.06 2.61 8.712 3.113 10.329.028.09.047.12.07.195l1.586-7.121v-.008a.95.95 0 01.184-.46l.05-.071.009-.008 12.16-14.305zm5.36 9.817l3.21-2.976-2.187-1.641zm0 0" stroke-width=".85728" stroke-linejoin="round" stroke="#000" stroke-miterlimit="10"/><path d="M44.047 6.309c-.477.023-.945.156-1.363.324a816.76 816.76 0 00-6.348 2.699c-3.54 1.512-8.133 3.48-12.691 5.434-9.114 3.906-18.07 7.75-18.07 7.75l.066-.028s-.543.18-1.09.563c-.274.191-.57.437-.809.797-.242.359-.418.867-.351 1.406.23 1.894 2.191 2.43 2.191 2.43l.008.003 8.754 2.997c.222.742 2.652 8.859 3.187 10.578.297.949.57 1.496.86 1.87.144.188.297.333.464.438.067.043.137.075.204.102h.003c.008.004.02.004.028.008l-.024-.008c.016.008.032.02.047.023.032.012.051.012.09.02 1.004.351 1.832-.3 1.832-.3l.035-.024 5.375-4.989 8.723 6.805.11.047c1.527.68 2.91.3 3.675-.32.766-.625 1.067-1.426 1.067-1.426l.03-.086 6.41-33.41c.165-.75.188-1.395.032-1.977-.152-.586-.527-1.094-1-1.375a2.56 2.56 0 00-1.445-.351zm.05 2c.196-.008.34.011.387.039.043.027.067.023.11.187.043.168.066.512-.055 1.055v.012L38.164 42.82c-.016.035-.148.34-.453.59-.309.25-.652.445-1.566.063l-9.54-7.438-.27-.21-.003.003-2.855-2.14 16.035-18.864a.987.987 0 00-.774-1.62.997.997 0 00-.523.163l-23.2 15.469-8.761-3s-.871-.484-.914-.824c-.004-.016-.012 0 .031-.067.047-.066.16-.183.305-.28.285-.2.61-.321.61-.321l.03-.012.036-.012s8.953-3.843 18.07-7.746c4.555-1.953 9.152-3.922 12.687-5.433 3.536-1.512 6.09-2.598 6.305-2.684.246-.098.492-.14.684-.148zM33.47 18.899l-12.16 14.304-.008.008-.051.07c-.02.028-.04.055-.055.082a.95.95 0 00-.129.38v.007l-1.586 7.121c-.023-.074-.043-.105-.07-.195-.504-1.617-2.797-9.27-3.113-10.328zm-10.79 16.648l2.188 1.64-3.21 2.977zm0 0"/></svg>